<?xml version="1.0" encoding="utf-8"?>
<svg version="1.1" xmlns="http://www.w3.org/2000/svg" x="0px" y="0px" width="512px" height="512px" viewBox="144 144 512 512">
	<rect x="144" y="176" fill="#3498DB" width="512" height="480"/>
	<path fill="#2980B9" d="M579.2,144L656,176H144l76.8-32H579.2z"/>
	<g transform="translate(150, 100)" fill="#ECF0F1">
		<path opacity="0.5" d="M250,396c-70.693,0-128-57.308-128-128c0-70.693,57.307-128,128-128c70.692,0,128,57.307,128,128v120.327v95.11c9.414,5.445,20.342,8.562,32,8.562V268c0-88.366-71.635-160-160-160c-88.366,0-160,71.634-160,160c0,88.365,71.634,160,160,160c22.756,0,44.4-4.75,64-13.313v-35.812C295.173,389.767,273.314,396,250,396z"/>
		<path d="M346,312.223V428c0,35.346,28.654,64,64,64v32c-53.02,0-96-42.98-96-96v-88.444C297.016,354.757,274.588,364,250,364c-53.02,0-96-42.98-96-96s42.98-96,96-96s96,42.98,96,96V312.223z M250,332c35.346,0,64-28.654,64-64c0-35.346-28.654-64-64-64c-35.346,0-64,28.654-64,64C186,303.346,214.654,332,250,332z"/>
	</g>
</svg>
