<svg xmlns="http://www.w3.org/2000/svg" viewBox="0 0 800 800"><g fill="#ECF0F1" transform="translate(150, 75)"><path opacity="0.5" d="M102,161.25c-49.706,0-90-40.295-90-90c0-49.706,40.294-90,90-90c49.705,0,90,40.294,90,90v151.48c6.619,3.828,14.304,6.02,22.5,6.02V71.25c0-62.132-50.368-112.5-112.5-112.5S-10.5,9.118-10.5,71.25s50.368,112.5,112.5,112.5c16,0,31.22-3.34,45-9.361v-25.18C133.762,156.867,118.393,161.25,102,161.25z"/><path d="M169.5,183.75c0,24.854,20.146,45,45,45v22.5c-37.279,0-67.5-30.221-67.5-67.5v-62.188c-11.941,10.688-27.712,17.188-45,17.188c-37.279,0-67.5-30.221-67.5-67.5S64.721,3.75,102,3.75s67.5,30.221,67.5,67.5V183.75zM102,116.25c24.854,0,45-20.147,45-45s-20.146-45-45-45c-24.853,0-45,20.147-45,45S77.147,116.25,102,116.25z"/></g></svg>
