<svg xmlns="http://www.w3.org/2000/svg" viewBox="0 0 800 800"><g fill="#ECF0F1" transform="translate(150, 75)"><path opacity="0.5" d="M250,450 C139.54305,450 50,360.45696 50,250 C50,139.54305 139.54305,50 250,50 C360.45696,50 450,139.54305 450,250 L450,586.62178 C464.70865,595.1303 481.78563,600 500,600 L500,250 C500,111.92881 388.07119,0 250,0 C111.92881,0 0,111.92881 0,250 C0,388.07119 111.92881,500 250,500 C285.55524,500 319.37688,492.57763 350,479.19782 L350,423.24356 C320.58266,440.26057 286.42872,450 250,450 Z"></path><path d="M400,500 C400,555.22848 444.77152,600 500,600 L500,650 C417.15728,650 350,582.84272 350,500 L350,361.80533 C323.46218,385.55732 288.41772,400 250,400 C167.15728,400 100,332.84272 100,250 C100,167.15728 167.15728,100 250,100 C332.84272,100 400,167.15728 400,250 L400,500 Z M250,350 C305.22848,350 350,305.22848 350,250 C350,194.77152 305.22848,150 250,150 C194.77152,150 150,194.77152 150,250 C150,305.22848 194.77152,350 250,350 Z"></path></g></svg>
