<?xml version="1.0" encoding="UTF-8" standalone="no"?>
<svg width="750px" height="750px" viewBox="0 0 750 750" version="1.1" xmlns="http://www.w3.org/2000/svg" xmlns:xlink="http://www.w3.org/1999/xlink" xmlns:sketch="http://www.bohemiancoding.com/sketch/ns">
    <title>logo1</title>
    <description>Created with Sketch (http://www.bohemiancoding.com/sketch)</description>
    <defs></defs>
    <g id="Page-2" stroke="none" stroke-width="1" fill="none" fill-rule="evenodd" sketch:type="MSPage">
        <g id="Group" sketch:type="MSLayerGroup">
            <rect id="Rectangle-1-copy" fill="#33A5E6" sketch:type="MSShapeGroup" x="0" y="0" width="750" height="750"></rect>
            <path d="M450,550 C311.928806,550 200,438.071194 200,300 C200,161.928806 311.928806,50 450,50 C588.071194,50 700,161.928806 700,300 L700,700 L675,700 L700,700 L700,650 C681.785631,650 664.708647,645.13028 650,636.621782 L650,488.012189 L650,300 C650,189.543045 560.456955,100 450,100 C339.543045,100 250,189.543045 250,300 C250,410.456955 339.543045,500 450,500 C509.734628,500 563.352778,473.812258 600,432.291224 L600,500.018314 C558.21698,531.402759 506.2803,550 450,550 Z" id="Oval-1-copy" fill-opacity="0.5" fill="#FFFFFF" sketch:type="MSShapeGroup"></path>
            <path d="M450,500 C339.543045,500 250,410.456955 250,300 C250,189.543045 339.543045,100 450,100 C560.456955,100 650,189.543045 650,300 L650,636.621782 C620.109918,619.331291 600,587.014109 600,550 L600,461.645612 L600,300 C600,217.157283 532.842717,150 450,150 C367.157283,150 300,217.157283 300,300 C300,382.842717 367.157283,450 450,450 C488.417723,450 523.462176,435.557323 550,411.805328 L550,473.243564 C520.582664,490.260573 486.428715,500 450,500 Z" id="Oval-1" fill-opacity="0.75" fill="#FFFFFF" sketch:type="MSShapeGroup"></path>
            <path d="M600,300.000263 L600,369.097336 L600,549.999925 L600,550 C600,605.228478 644.771522,650 700,650 L700,700 L700,700 C617.157283,700 550,632.842717 550,550 L550,411.805328 C523.462176,435.557323 488.417723,450 450,450 C367.157283,450 300,382.842717 300,300 C300,217.157283 367.157283,150 450,150 C532.842717,150 600,217.157283 600,300 L600,300.000263 Z M450,400 C505.228478,400 550,355.228478 550,300 C550,244.771522 505.228478,200 450,200 C394.771522,200 350,244.771522 350,300 C350,355.228478 394.771522,400 450,400 Z" id="Oval-9" fill="#FFFFFF" sketch:type="MSShapeGroup"></path>
        </g>
    </g>
</svg>