<?xml version="1.0" encoding="utf-8"?>
<!-- Generator: Adobe Illustrator 16.0.0, SVG Export Plug-In . SVG Version: 6.00 Build 0)  -->
<!DOCTYPE svg PUBLIC "-//W3C//DTD SVG 1.1//EN" "http://www.w3.org/Graphics/SVG/1.1/DTD/svg11.dtd">
<svg version="1.1" id="Layer_1" xmlns="http://www.w3.org/2000/svg" xmlns:xlink="http://www.w3.org/1999/xlink" x="0px" y="0px"
	 width="384px" height="384px" viewBox="0 0 384 384" enable-background="new 0 0 384 384" xml:space="preserve">
<path d="M448,176.1h-64.7c-2.3-27.899-10.5-54-23.5-77.3C332.4,49.6,284,13.7,226.8,3.2c-0.7-0.101-1.5-0.3-2.2-0.4
	c-0.5-0.1-0.899-0.2-1.399-0.2C213.1,0.9,202.6,0,192,0h-0.4l0,0C100.7,0.201,24.6,63.601,4.9,148.601v0.1
	c-0.301,1.1-0.5,2.201-0.7,3.301c-0.101,0.5-0.2,0.9-0.3,1.4c-0.101,0.699-0.301,1.398-0.4,2.1c-0.2,0.9-0.3,1.699-0.5,2.6
	c-0.1,0.4-0.1,0.699-0.2,1.1c-0.2,1.201-0.399,2.4-0.6,3.6v0.201c-1,6.299-1.601,12.699-1.9,19.1v0.801
	c-0.1,1.398-0.1,2.699-0.2,4.1c0,1.6-0.1,3.299-0.1,5s0,3.3,0.1,5c0,1.4,0.101,2.701,0.2,4.1v0.9c0.3,6.5,1,12.9,1.9,19.1v0.201
	c0.2,1.199,0.399,2.4,0.6,3.6C2.9,225.301,2.9,225.6,3,226c0.2,0.9,0.3,1.801,0.5,2.6c0.1,0.701,0.3,1.4,0.4,2.102
	c0.1,0.5,0.199,1,0.3,1.398c0.2,1.102,0.5,2.201,0.7,3.201v0.1c19.7,85.001,96.1,148.4,187.1,148.601c42.9-0.1,83.1-14.2,116.9-40.7
	l7.5-5.899l-43.2-46.2l-6.2,4.6c-22.1,16.3-47.5,24.2-75,24.2c-70.6,0-128-57-128-128s57.4-128,128-128c66.4,0,122.8,46.6,129.5,112
	H248l104,112L448,176.1z"/>
</svg>
